<?xml version="1.0" standalone="no"?>
<svg xmlns="http://www.w3.org/2000/svg" version="1.1" xmlns:xlink="http://www.w3.org/1999/xlink" width="512" height="512" x="0" y="0" viewBox="0 0 512.013 512.013" style="enable-background:new 0 0 512 512" xml:space="preserve" class=""><g><path d="M270.438 375.473h17.997l-8.363 68.941a14.566 14.566 0 0 0 8.38 15.078 14.226 14.226 0 0 0 16.538-3.413l66.603-73.182a14.705 14.705 0 0 0 2.56-15.855 14.234 14.234 0 0 0-13.184-8.636h-17.971l8.363-68.941a14.558 14.558 0 0 0-8.371-15.078 14.25 14.25 0 0 0-16.546 3.413l-66.56 73.182a14.72 14.72 0 0 0-2.56 15.855 14.237 14.237 0 0 0 13.114 8.636zm63.002-80.008-8.533 70.443a8.534 8.534 0 0 0 8.456 9.565h21.897l-57.284 62.942 8.533-70.443a8.534 8.534 0 0 0-8.456-9.565h-21.897z" fill="#f7931e" opacity="1" data-original="#000000" class=""/><path d="M17.075 126.437v44.237a59.732 59.732 0 0 0 34.133 53.888v150.912c.061 56.529 45.871 102.339 102.4 102.4h8.533v12.629c.009 11.872 9.632 21.495 21.504 21.504h264.192c11.872-.009 21.495-9.632 21.504-21.504V315.237l2.031 1.579a15.127 15.127 0 0 0 21.239-2.663l16.213-20.838c5.131-6.598 3.943-16.106-2.654-21.239l-53.897-41.916v-68.02c0-9.426-7.641-17.067-17.067-17.067h-34.133c-9.426 0-17.067 7.641-17.067 17.067v14.925l-58.974-45.867a15.12 15.12 0 0 0-18.586 0L125.32 272.075c-6.597 5.133-7.785 14.641-2.654 21.239l16.213 20.838a15.131 15.131 0 0 0 21.239 2.663l2.022-1.579v111.437h-8.533c-28.265-.028-51.172-22.935-51.2-51.2V224.561a59.732 59.732 0 0 0 34.133-53.888v-44.237a25.447 25.447 0 0 0 0-48.06v-52.77c0-14.138-11.462-25.6-25.6-25.6s-25.6 11.462-25.6 25.6v51.2H68.275v-51.2c0-14.138-11.462-25.6-25.6-25.6s-25.6 11.462-25.6 25.6v52.77a25.449 25.449 0 0 0 0 48.061zm384 35.703h34.133v54.75l-34.133-26.547zM151.159 302.155l-13.841-17.792 178.423-138.769 178.423 138.769-13.841 17.792-159.343-123.93a8.534 8.534 0 0 0-10.479 0zM315.741 195.77l136.533 106.189v188.587a4.437 4.437 0 0 1-4.437 4.437H183.645a4.437 4.437 0 0 1-4.437-4.437V301.959zM153.608 443.74h8.533v17.067h-8.533c-47.107-.052-85.282-38.226-85.333-85.333v-145.75c2.825.431 5.676.659 8.533.683a59.896 59.896 0 0 0 8.533-.683v145.749c.043 37.685 30.582 68.225 68.267 68.267zm-34.133-273.067c0 23.564-19.103 42.667-42.667 42.667s-42.667-19.103-42.667-42.667v-42.667h85.333v42.667zM102.408 25.607a8.533 8.533 0 0 1 17.066 0v51.2h-17.067v-51.2zm-68.267 0a8.533 8.533 0 0 1 17.066 0v51.2H34.141zm-8.533 68.266h102.4a8.533 8.533 0 0 1 0 17.066h-102.4a8.533 8.533 0 0 1 0-17.066z" fill="#f7931e" opacity="1" data-original="#000000" class=""/></g></svg>