<?xml version="1.0" standalone="no"?>
<svg xmlns="http://www.w3.org/2000/svg" version="1.1" xmlns:xlink="http://www.w3.org/1999/xlink" width="512" height="512" x="0" y="0" viewBox="0 0 303.176 180.275" style="enable-background:new 0 0 512 512" xml:space="preserve" class=""><g transform="matrix(1,0,0,1,0,1.4210854715202004e-14)"><path d="M54.581 139.223c-1.836.317-3.94.387-5.947.412a60.64 60.64 0 0 1-.856.006c-3.636 0-7.818-.331-11.738-1.876l6.766 17.176H12.5c-6.903 0-12.5 5.597-12.5 12.5s5.597 12.5 12.5 12.5h48.666a12.501 12.501 0 0 0 11.63-17.082L62.8 137.487l-4.909 1.276a14.665 14.665 0 0 1-3.31.46z" fill="#f7931e" opacity="1" data-original="#000000" class=""/><path d="M112.079 111.144a12.5 12.5 0 0 0-15.56-10.634l-36.038 9.372c.227-7.668 1.354-15.476 2.669-22.741L46.033 73.755c-2.167-1.694-3.545-4.132-3.879-6.862s.415-5.429 2.11-7.596a10.24 10.24 0 0 1 8.119-3.956c2.317 0 4.51.757 6.339 2.188l8.552 6.687c.01-7.964-3.734-15.534-10.37-17.188-8.537-2.129-20.912 2.508-25.947 17.15-6.805 20.174-8.268 33.304-5.682 55.52 3.129 16.102 14.164 17.754 23.328 17.637 2.212-.028 4.125-.109 5.748-.408a12.45 12.45 0 0 0 2.96-.39l31.617-8.223 4.822 40.922c.749 6.359 6.148 11.038 12.398 11.038.488 0 .981-.028 1.479-.087 4.058-.478 7.42-2.857 9.33-6.135v-21.498zM158.135 132.063h145.041v5.615H158.135zM293.049 178.272l2.898-37.178H285l2.897 37.178zM162.626 94.26v34.386h136.059V94.26zm68.027 16.982a4.84 4.84 0 1 1 0-9.683 4.842 4.842 0 1 1 0 9.683zM303.176 42.885V37.27H158.135v5.615h6.363v42.346h-6.363v5.613h145.041v-5.613h-5.511V42.885zm-10.011 42.346H168.998V42.885h124.167zM120.959 144.301v34.387h136.059v-34.387zm68.027 7.299a4.842 4.842 0 1 1 .003 9.685 4.842 4.842 0 0 1-.003-9.685zM170.331 25.441h16v6h-16zM196.331 25.441h16v6h-16zM116.495 59.023l3.851-.013-.007-2.037 2.511-.009-.004-1.358 1.782-.006-.004-1.012 7.694-.026-.006-2.15 21.544-.072-.006-1.62-21.543.071-.007-2.224-7.694.026-.003-1.012-1.783.006-.004-1.359-21.196.07a5.369 5.369 0 1 0 .035 10.736l2.527-.008c1.49-.798 3.138-1.239 4.836-1.239a10.26 10.26 0 0 1 7.477 3.236zm-16.267-9.665 10.851-.036.004 1.134-10.852.037zm.014 4.048-.005-1.133 10.853-.036.004 1.134zM114.671 74.702l-9.247 6.063 15.641-.052-.026-7.937-4.204.014a10.237 10.237 0 0 1-2.164 1.912z" fill="#f7931e" opacity="1" data-original="#000000" class=""/><path d="M57.306 59.34a7.998 7.998 0 0 0-11.229 1.374 7.999 7.999 0 0 0 1.374 11.229l26.146 20.445a7.99 7.99 0 0 0 4.929 1.698c1.522 0 3.05-.434 4.386-1.31l30.5-20a8.001 8.001 0 0 0-8.773-13.381L78.934 76.252zM108.024 17.543c.395-3.939-8.863-8.093-20.678-9.279-.404-.041-.8-.067-1.199-.1a22.422 22.422 0 0 0-15.09-8.05C58.693-1.127 47.663 7.891 46.423 20.255c-1.241 12.366 7.777 23.393 20.14 24.634 11.342 1.138 21.552-6.356 24.123-17.146a61.956 61.956 0 0 1-6.272-1.297c-11.284-2.932-19.669-8.31-19.029-12.131 1.171 3.595 9.779 7.131 20.53 8.21 8.113.814 15.322.017 19.171-1.838 1.756-.845 2.814-1.911 2.938-3.144z" fill="#f7931e" opacity="1" data-original="#000000" class=""/></g></svg>