<?xml version="1.0" standalone="no"?>
<svg xmlns="http://www.w3.org/2000/svg" version="1.1" xmlns:xlink="http://www.w3.org/1999/xlink" width="512" height="512" x="0" y="0" viewBox="0 0 74 74" style="enable-background:new 0 0 512 512" xml:space="preserve" class=""><g><path d="m32.38 20.58-.47-1.76a.747.747 0 0 0-.53-.53l-1.75-.47a.76.76 0 0 0-.72.19l-1.29 1.29c-.19.19-.26.46-.19.72l.47 1.75c.07.26.27.46.53.53l1.76.47c.06.02.13.03.19.03.2 0 .39-.08.53-.22l1.28-1.28c.19-.18.26-.46.19-.72zm-2.23.64-.92-.25-.25-.92.67-.67.92.24.25.92z" fill="#f7931e" opacity="1" data-original="#000000" class=""/><path d="M66.05 27.52c1.63 0 2.95-1.32 2.95-2.95v-8.54c0-1.62-1.32-2.95-2.95-2.95-1.36 0-2.5.94-2.84 2.2H47.16a5.568 5.568 0 0 0-2.09-1.29 5.44 5.44 0 0 0-3.12-.09l-2.42-2.42a2.65 2.65 0 0 0-1.57-.74L33.58 6.4A4.81 4.81 0 0 0 30.2 5h-.01c-1.27 0-2.47.5-3.37 1.4l-2.65 2.65c-1.23 1.23-1.8 3.74-2.07 5.63-.03.2-.03.4-.01.59h-5.14c-5.38 0-9.75 4.37-9.75 9.75v11.69c-1.26.34-2.2 1.48-2.2 2.84s.94 2.5 2.2 2.84v8.69A2.94 2.94 0 0 0 5 53.92c0 1.36.94 2.5 2.2 2.84v11.5c0 .2.08.39.22.53s.33.21.53.21h8.54c.41 0 .75-.34.75-.75v-11.5a2.94 2.94 0 0 0 2.2-2.84c0-1.36-.94-2.5-2.2-2.84v-8.69a2.94 2.94 0 0 0 2.2-2.84c0-1.36-.94-2.5-2.2-2.84V26.58c0-.69.56-1.25 1.25-1.25h9.21l2.85.76a1.708 1.708 0 0 0 1.19-.11l31.03 29.81c.68.68 1.62 1.07 2.58 1.07s1.9-.39 2.58-1.07c.69-.69 1.07-1.61 1.07-2.58s-.38-1.89-1.07-2.58L53.14 35.84c-.94-.94-1.79-1.98-2.52-3.09a4.25 4.25 0 0 1-.69-2.72c.01-.13.01-.26.02-.39l6.29 6.29c.52.52 1.2.8 1.94.8a2.734 2.734 0 0 0 1.94-4.67l-6.73-6.73h9.84a2.908 2.908 0 0 0 2.82 2.19zm0-12.93c.8 0 1.45.65 1.45 1.45v8.54a1.451 1.451 0 0 1-2.9 0v-8.54c.01-.8.66-1.45 1.45-1.45zM47.19 28.01c-.09.09-.24.09-.34.01-.01-.01-.01 0-.02-.01l-1.87-1.87a.228.228 0 0 1-.07-.19c0-.06.02-.12.07-.17l4.38-4.38c.13-.13.23-.13.36 0l1.87 1.87c.1.1.1.26 0 .36zm5.44-5.8-1.87-1.87c-.41-.41-1-.56-1.56-.47l-.35-1.65c-.11-.5-.29-.98-.53-1.43h14.79v7.04H53.1a1.76 1.76 0 0 0-.47-1.62zm-8.05-6.8c.6.21 2.34.98 2.8 3.12l.22 1.02-4.35-4.35c.43 0 .9.07 1.33.21zm2.69 5.93-1.75 1.75-8.81-8.8c-.48-.48-.48-1.27 0-1.75.47-.47 1.28-.47 1.75 0zm-23.69-6.45c.32-2.31.92-4.06 1.64-4.78l2.65-2.65c.62-.62 1.44-.96 2.32-.96h.01c.87 0 1.71.35 2.33.97l3.65 3.62c-.19.11-.37.24-.53.39-.52.52-.8 1.2-.8 1.94 0 .73.28 1.42.8 1.94l1.42 1.42-2.12 1.43-.36-1.35c-.16-.6-.64-1.08-1.24-1.24l-3.4-.91 1.29-1.29c.38-.38.59-.88.59-1.42s-.21-1.04-.59-1.42c-.75-.76-2.08-.76-2.83 0l-4.8 4.8c-.03-.16-.05-.33-.03-.49zm5.9-3.25c.19-.19.52-.19.71 0a.508.508 0 0 1 0 .72l-4.92 4.92-.71-.71zM15.74 50.97H8.7V42.5h7.04zm0 16.53H8.7V56.86h7.04zm2.19-13.58c0 .8-.65 1.45-1.45 1.45H7.95a1.451 1.451 0 0 1 0-2.9h8.54c.8 0 1.44.65 1.44 1.45zm0-14.37c0 .8-.65 1.45-1.45 1.45H7.95c-.8 0-1.45-.65-1.45-1.45 0-.79.64-1.44 1.43-1.44H16.49c.8 0 1.44.65 1.44 1.44zm-2.19-12.97v10.03H8.7V25.03c0-4.55 3.7-8.25 8.25-8.25h5.76c.06.07.11.15.17.22.02.02.04.02.06.04.01.02.02.04.04.05l1.3 1.3c-.2.39-.27.84-.15 1.27l1.09 4.1c.01.03.02.05.03.07H18.5a2.75 2.75 0 0 0-2.76 2.75zm11.09-3.03c-.09-.02-.15-.09-.18-.18l-1.09-4.1c-.02-.09 0-.18.06-.24l3-3c.05-.05.11-.07.18-.07.02 0 .04 0 .06.01l4.1 1.09c.09.02.15.09.18.18l.63 2.35v.02l.47 1.74c.02.09 0 .18-.06.24l-2.97 2.97v.01l-.03.03c-.06.06-.15.09-.24.06zM52.08 36.9l14.79 14.79c.41.41.63.95.63 1.52s-.22 1.11-.63 1.52c-.8.8-2.24.8-3.04 0L32.91 24.97l2.33-2.33c.44-.44.61-1.09.45-1.69l-.33-1.22 2.79-1.88 6.3 6.3-.56.56c-.26.26-.42.57-.48.91-.11.55.05 1.15.48 1.58l1.87 1.87a1.748 1.748 0 0 0 2.43.04c.02-.02.04-.03.05-.04l.15-.15c.05.33.06.65.03.97-.11 1.29.22 2.59.93 3.68.8 1.2 1.72 2.32 2.73 3.33zm6.96-2.03c-.47.47-1.28.47-1.75 0l-7.42-7.42.57-.57 1.18-1.18 7.42 7.42c.49.48.49 1.27 0 1.75z" fill="#f7931e" opacity="1" data-original="#000000" class=""/><path d="M16.95 18.78c-3.45 0-6.25 2.8-6.25 6.25v2.65c0 .41.34.75.75.75s.75-.34.75-.75v-2.65c0-2.62 2.13-4.75 4.75-4.75.41 0 .75-.34.75-.75s-.34-.75-.75-.75zM11.45 29.98c-.41 0-.75.34-.75.75v2.25c0 .41.34.75.75.75s.75-.34.75-.75v-2.25c0-.41-.34-.75-.75-.75zM30.21 30.94c-.28 0-.53.15-.66.39-.52.95-2.22 4.17-2.22 5.43a2.88 2.88 0 0 0 2.88 2.88c1.58 0 2.87-1.29 2.87-2.88 0-1.29-1.84-4.75-2.21-5.43a.77.77 0 0 0-.66-.39zm0 7.2c-.76 0-1.38-.62-1.38-1.38 0-.47.64-1.96 1.38-3.45.74 1.48 1.37 2.98 1.37 3.45 0 .76-.62 1.38-1.37 1.38zM30.21 43.39c-.28 0-.53.15-.66.39-.52.95-2.22 4.17-2.22 5.43a2.88 2.88 0 0 0 2.88 2.88c1.58 0 2.87-1.29 2.87-2.88 0-1.29-1.84-4.75-2.21-5.43a.77.77 0 0 0-.66-.39zm0 7.2c-.76 0-1.38-.62-1.38-1.38 0-.47.64-1.96 1.38-3.45.74 1.48 1.37 2.98 1.37 3.45 0 .76-.62 1.38-1.37 1.38z" fill="#f7931e" opacity="1" data-original="#000000" class=""/></g></svg>